# xmcd CD database file
#
# Track frame offsets:
#	187
#	13735
#	28860
#
# Disc length: 569 seconds
#
# Revision: 0
# Processed by: cddbd v1.5PL3 Copyright (c) Steve Scherf et al.
# Submitted via: CDex 1.51
#
DISCID=1d023703
DTITLE=LISA LOEB - Truthfully
DYEAR=1998
DGENRE=Pop
TTITLE0=Truthfully (LP Version)
TTITLE1=I Do (Acoustic Live in Japan)
TTITLE2=Dance With The Angels (Live from Lilith Fair)
EXTD=YEAR: 1998
EXTT0=
EXTT1=
EXTT2=
PLAYORDER=
